<svg width="20" height="22" viewBox="0 0 20 22" fill="none" xmlns="http://www.w3.org/2000/svg">
<path d="M8.5 10H15M5 10H5.5M5 6.5H5.5M5 13.5H5.5M15 13.5H14M8.5 13.5H11.5M15 6.5H12M8.5 6.5H9.5M19 6V5.37C19 4.177 19 3.58 18.842 3.1C18.6985 2.65423 18.4542 2.24757 18.1279 1.91162C17.8017 1.57567 17.4024 1.31949 16.961 1.163C16.493 1 15.914 1 14.755 1H5.245C4.086 1 3.507 1 3.039 1.163C2.59778 1.31946 2.19856 1.5755 1.87234 1.91126C1.54612 2.24702 1.30168 2.65345 1.158 3.099C1 3.581 1 4.177 1 5.37V14M19 10V19.374C19 20.232 18.015 20.688 17.392 20.118C17.2172 19.9565 16.988 19.8668 16.75 19.8668C16.512 19.8668 16.2828 19.9565 16.108 20.118L15.625 20.56C15.3188 20.8432 14.9171 21.0004 14.5 21.0004C14.0829 21.0004 13.6812 20.8432 13.375 20.56C13.0688 20.2768 12.6671 20.1196 12.25 20.1196C11.8329 20.1196 11.4312 20.2768 11.125 20.56C10.8188 20.8432 10.4171 21.0004 10 21.0004C9.58293 21.0004 9.18121 20.8432 8.875 20.56C8.56879 20.2768 8.16707 20.1196 7.75 20.1196C7.33293 20.1196 6.93121 20.2768 6.625 20.56C6.31879 20.8432 5.91707 21.0004 5.5 21.0004C5.08293 21.0004 4.68121 20.8432 4.375 20.56L3.892 20.118C3.71721 19.9565 3.48798 19.8668 3.25 19.8668C3.01202 19.8668 2.78279 19.9565 2.608 20.118C1.985 20.688 1 20.232 1 19.374V18" stroke="#006810" stroke-width="1.5" stroke-linecap="round"/>
</svg>
