<svg width="99" height="97" viewBox="0 0 99 97" fill="none" xmlns="http://www.w3.org/2000/svg">
<path d="M30.4041 21.1566L68.0857 75.3424C57.5496 82.6694 40.1333 74.3261 40.1333 74.3261L31.4049 80.3959C30.6065 80.9511 29.6203 81.1664 28.6632 80.9945C27.706 80.8225 26.8564 80.2774 26.3012 79.479L11.8252 58.6626C11.27 57.8643 11.0547 56.878 11.2266 55.9209C11.3986 54.9637 11.9437 54.1141 12.7421 53.5589L21.4705 47.489C21.4705 47.489 19.868 28.4836 30.4041 21.1566Z" stroke="white" stroke-width="4" stroke-linejoin="round"/>
<path d="M51.8658 26.3291C53.3916 26.5156 54.8934 26.8626 56.3463 27.3645C60.7918 28.9037 64.6311 31.8195 67.3068 35.6887C70.0848 39.6834 71.379 44.2611 71.2993 48.7447C71.2707 50.3206 71.072 51.8888 70.7066 53.422" stroke="white" stroke-width="4" stroke-linecap="round" stroke-linejoin="round"/>
<path d="M82.6405 63.4035C87.7897 52.0293 86.9943 38.3109 79.3481 27.3157C71.8202 16.4906 59.5081 10.9754 47.2446 11.6343" stroke="white" stroke-width="4" stroke-linecap="round"/>
</svg>
