<svg width="22" height="23" viewBox="0 0 22 23" fill="none" xmlns="http://www.w3.org/2000/svg">
<mask id="path-1-inside-1_16_1220" fill="white">
<path fill-rule="evenodd" clip-rule="evenodd" d="M20.6 8.30742H1.39995V21.5074H20.6V8.30742ZM1.39995 7.10742C1.08169 7.10742 0.776467 7.23385 0.551423 7.45889C0.326379 7.68394 0.199951 7.98916 0.199951 8.30742V21.5074C0.199951 21.8257 0.326379 22.1309 0.551423 22.3559C0.776467 22.581 1.08169 22.7074 1.39995 22.7074H20.6C20.9182 22.7074 21.2234 22.581 21.4485 22.3559C21.6735 22.1309 21.8 21.8257 21.8 21.5074V8.30742C21.8 7.98916 21.6735 7.68394 21.4485 7.45889C21.2234 7.23385 20.9182 7.10742 20.6 7.10742H1.39995Z"/>
</mask>
<path fill-rule="evenodd" clip-rule="evenodd" d="M20.6 8.30742H1.39995V21.5074H20.6V8.30742ZM1.39995 7.10742C1.08169 7.10742 0.776467 7.23385 0.551423 7.45889C0.326379 7.68394 0.199951 7.98916 0.199951 8.30742V21.5074C0.199951 21.8257 0.326379 22.1309 0.551423 22.3559C0.776467 22.581 1.08169 22.7074 1.39995 22.7074H20.6C20.9182 22.7074 21.2234 22.581 21.4485 22.3559C21.6735 22.1309 21.8 21.8257 21.8 21.5074V8.30742C21.8 7.98916 21.6735 7.68394 21.4485 7.45889C21.2234 7.23385 20.9182 7.10742 20.6 7.10742H1.39995Z" fill="black"/>
<path d="M20.6 8.30742H21.8V7.10742H20.6V8.30742ZM1.39995 8.30742V7.10742H0.199951V8.30742H1.39995ZM1.39995 21.5074H0.199951V22.7074H1.39995V21.5074ZM20.6 21.5074V22.7074H21.8V21.5074H20.6ZM0.199951 8.30742H-1.00005H0.199951ZM0.199951 21.5074H-1.00005H0.199951ZM20.6 7.10742H1.39995V9.50742H20.6V7.10742ZM0.199951 8.30742V21.5074H2.59995V8.30742H0.199951ZM1.39995 22.7074H20.6V20.3074H1.39995V22.7074ZM21.8 21.5074V8.30742H19.4V21.5074H21.8ZM1.39995 5.90742C0.763431 5.90742 0.152982 6.16028 -0.297105 6.61037L1.39995 8.30742V8.30742V5.90742ZM-0.297105 6.61037C-0.747192 7.06045 -1.00005 7.6709 -1.00005 8.30742H1.39995V8.30742L-0.297105 6.61037ZM-1.00005 8.30742V21.5074H1.39995V8.30742H-1.00005ZM-1.00005 21.5074C-1.00005 22.1439 -0.747192 22.7544 -0.297105 23.2045L1.39995 21.5074V21.5074H-1.00005ZM-0.297105 23.2045C0.15298 23.6546 0.763428 23.9074 1.39995 23.9074V21.5074V21.5074L-0.297105 23.2045ZM1.39995 23.9074H20.6V21.5074H1.39995V23.9074ZM20.6 23.9074C21.2365 23.9074 21.8469 23.6546 22.297 23.2045L20.6 21.5074V21.5074V23.9074ZM22.297 23.2045C22.7471 22.7544 23 22.1439 23 21.5074H20.6V21.5074L22.297 23.2045ZM23 21.5074V8.30742H20.6V21.5074H23ZM23 8.30742C23 7.6709 22.7471 7.06045 22.297 6.61037L20.6 8.30742V8.30742H23ZM22.297 6.61037C21.8469 6.16028 21.2365 5.90742 20.6 5.90742V8.30742V8.30742L22.297 6.61037ZM20.6 5.90742H1.39995V8.30742H20.6V5.90742Z" fill="#006810" mask="url(#path-1-inside-1_16_1220)"/>
<path fill-rule="evenodd" clip-rule="evenodd" d="M6.19998 11.3069C6.19998 11.1478 6.26319 10.9952 6.37571 10.8827C6.48823 10.7701 6.64085 10.7069 6.79998 10.7069H15.2C15.3591 10.7069 15.5117 10.7701 15.6242 10.8827C15.7368 10.9952 15.8 11.1478 15.8 11.3069C15.8 11.4661 15.7368 11.6187 15.6242 11.7312C15.5117 11.8437 15.3591 11.9069 15.2 11.9069H6.79998C6.64085 11.9069 6.48823 11.8437 6.37571 11.7312C6.26319 11.6187 6.19998 11.4661 6.19998 11.3069ZM4.99998 14.9069C4.99998 14.7478 5.06319 14.5952 5.17571 14.4827C5.28823 14.3701 5.44085 14.3069 5.59998 14.3069H16.4C16.5591 14.3069 16.7117 14.3701 16.8242 14.4827C16.9368 14.5952 17 14.7478 17 14.9069C17 15.0661 16.9368 15.2187 16.8242 15.3312C16.7117 15.4437 16.5591 15.5069 16.4 15.5069H5.59998C5.44085 15.5069 5.28823 15.4437 5.17571 15.3312C5.06319 15.2187 4.99998 15.0661 4.99998 14.9069ZM6.19998 18.5069C6.19998 18.3478 6.26319 18.1952 6.37571 18.0827C6.48823 17.9701 6.64085 17.9069 6.79998 17.9069H15.2C15.3591 17.9069 15.5117 17.9701 15.6242 18.0827C15.7368 18.1952 15.8 18.3478 15.8 18.5069C15.8 18.6661 15.7368 18.8187 15.6242 18.9312C15.5117 19.0437 15.3591 19.1069 15.2 19.1069H6.79998C6.64085 19.1069 6.48823 19.0437 6.37571 18.9312C6.26319 18.8187 6.19998 18.6661 6.19998 18.5069ZM13.1216 2.87693C12.843 2.59827 12.5122 2.37722 12.1482 2.22641C11.7842 2.0756 11.394 1.99797 11 1.99797C10.6059 1.99797 10.2158 2.0756 9.85174 2.22641C9.48772 2.37722 9.15696 2.59827 8.87838 2.87693L4.22478 7.53173C4.11211 7.6444 3.95931 7.70769 3.79998 7.70769C3.64065 7.70769 3.48784 7.6444 3.37518 7.53173C3.26251 7.41907 3.19922 7.26626 3.19922 7.10693C3.19922 7.02804 3.21476 6.94992 3.24495 6.87703C3.27514 6.80414 3.31939 6.73792 3.37518 6.68213L8.03118 2.02853C8.81879 1.24115 9.88689 0.798828 11.0006 0.798828C12.1143 0.798828 13.1824 1.24115 13.97 2.02853L18.6248 6.68333C18.6805 6.73912 18.7247 6.80533 18.7548 6.87819C18.7849 6.95104 18.8004 7.02912 18.8003 7.10796C18.8003 7.18679 18.7847 7.26485 18.7545 7.33766C18.7242 7.41048 18.68 7.47662 18.6242 7.53233C18.5684 7.58804 18.5022 7.63221 18.4293 7.66233C18.3565 7.69245 18.2784 7.70792 18.1996 7.70787C18.1207 7.70781 18.0427 7.69223 17.9698 7.66201C17.897 7.63178 17.8309 7.58752 17.7752 7.53173L13.1216 2.87693Z" fill="#006810"/>
</svg>
