<svg width="18" height="22" viewBox="0 0 18 22" fill="none" xmlns="http://www.w3.org/2000/svg">
<path d="M4.5 5.75H7.5M4.5 11H13.5M4.5 14H13.5M4.5 17H7.5M3 20.75H15C15.3978 20.75 15.7794 20.592 16.0607 20.3107C16.342 20.0294 16.5 19.6478 16.5 19.25V2.75C16.5 2.35218 16.342 1.97064 16.0607 1.68934C15.7794 1.40804 15.3978 1.25 15 1.25H3C2.60218 1.25 2.22064 1.40804 1.93934 1.68934C1.65804 1.97064 1.5 2.35218 1.5 2.75V19.25C1.5 19.6478 1.65804 20.0294 1.93934 20.3107C2.22064 20.592 2.60218 20.75 3 20.75Z" stroke="#006810" stroke-width="1.5" stroke-linecap="round" stroke-linejoin="round"/>
<path d="M13.5 6.125C13.7071 6.125 13.875 5.95711 13.875 5.75C13.875 5.54289 13.7071 5.375 13.5 5.375C13.2929 5.375 13.125 5.54289 13.125 5.75C13.125 5.95711 13.2929 6.125 13.5 6.125Z" fill="#006810" stroke="#006810" stroke-width="0.75"/>
</svg>
