<svg width="18" height="16" viewBox="0 0 18 16" fill="none" xmlns="http://www.w3.org/2000/svg">
<path d="M6 2H17.25M6 8H12.75M6 14H17.25M2.25 14C2.25 14.1989 2.17098 14.3897 2.03033 14.5303C1.88968 14.671 1.69891 14.75 1.5 14.75C1.30109 14.75 1.11032 14.671 0.96967 14.5303C0.829018 14.3897 0.75 14.1989 0.75 14C0.75 13.8011 0.829018 13.6103 0.96967 13.4697C1.11032 13.329 1.30109 13.25 1.5 13.25C1.69891 13.25 1.88968 13.329 2.03033 13.4697C2.17098 13.6103 2.25 13.8011 2.25 14ZM2.25 8C2.25 8.19891 2.17098 8.38968 2.03033 8.53033C1.88968 8.67098 1.69891 8.75 1.5 8.75C1.30109 8.75 1.11032 8.67098 0.96967 8.53033C0.829018 8.38968 0.75 8.19891 0.75 8C0.75 7.80109 0.829018 7.61032 0.96967 7.46967C1.11032 7.32902 1.30109 7.25 1.5 7.25C1.69891 7.25 1.88968 7.32902 2.03033 7.46967C2.17098 7.61032 2.25 7.80109 2.25 8ZM2.25 2C2.25 2.19891 2.17098 2.38968 2.03033 2.53033C1.88968 2.67098 1.69891 2.75 1.5 2.75C1.30109 2.75 1.11032 2.67098 0.96967 2.53033C0.829018 2.38968 0.75 2.19891 0.75 2C0.75 1.80109 0.829018 1.61032 0.96967 1.46967C1.11032 1.32902 1.30109 1.25 1.5 1.25C1.69891 1.25 1.88968 1.32902 2.03033 1.46967C2.17098 1.61032 2.25 1.80109 2.25 2Z" stroke="#006810" stroke-width="1.5" stroke-linecap="round"/>
</svg>
