<svg width="20" height="20" viewBox="0 0 20 20" fill="none" xmlns="http://www.w3.org/2000/svg">
<path d="M18.498 13.4996H1.5V18.4996H18.498V13.4996ZM19.945 12.4716L19.966 12.5336L19.989 12.6336L19.999 12.7336V19.2496C19.9989 19.4312 19.933 19.6065 19.8135 19.7431C19.6939 19.8798 19.5289 19.9684 19.349 19.9926L19.249 19.9996H0.75C0.568762 19.9996 0.393658 19.934 0.257069 19.8149C0.120481 19.6957 0.0316483 19.5312 0.00699997 19.3516L0 19.2496V12.7496L0.00200009 12.6976L0.0120001 12.6116C0.0221495 12.5591 0.0379063 12.5078 0.059 12.4586L2.819 6.43962C2.87106 6.32584 2.95076 6.22688 3.05084 6.15178C3.15092 6.07668 3.2682 6.02781 3.392 6.00962L3.5 6.00262L6.04 6.00162L5.25 7.37162L5.183 7.50162H3.98L1.918 11.9996H18.07L16.043 7.65362L16.905 6.15662C16.972 6.20662 17.03 6.26962 17.077 6.34062L17.13 6.43562L19.945 12.4716ZM11.365 0.0556192L11.457 0.100619L16.645 3.10362C16.973 3.29362 17.103 3.69462 16.964 4.03662L16.919 4.12862L14.112 8.99962H15.25C15.4414 8.99767 15.6263 9.06896 15.7668 9.19889C15.9073 9.32882 15.9928 9.50755 16.0059 9.69849C16.0189 9.88944 15.9585 10.0781 15.8369 10.226C15.7153 10.3738 15.5419 10.4695 15.352 10.4936L15.25 10.5006L13.248 10.4996V10.5026H9.169L9.166 10.4996H4.75C4.56116 10.4978 4.37995 10.4249 4.24254 10.2954C4.10513 10.1658 4.02166 9.98921 4.00877 9.80081C3.99589 9.6124 4.05456 9.42607 4.17306 9.27903C4.29156 9.132 4.46116 9.03507 4.648 9.00762L4.75 9.00062L6.573 8.99962L6.391 8.89462C6.23454 8.80345 6.11624 8.65889 6.05782 8.48749C5.9994 8.31609 6.00479 8.12936 6.073 7.96162L6.117 7.86962L10.434 0.373619C10.624 0.0446193 11.024 -0.0863809 11.365 0.0536191M11.355 1.77362L7.789 7.96962L9.567 8.99962H12.384L15.249 4.02662L11.355 1.77362Z" fill="#006810"/>
</svg>
