<?xml version="1.0" encoding="UTF-8"?>
<svg id="Layer_2" data-name="Layer 2" xmlns="http://www.w3.org/2000/svg" viewBox="0 0 53.5 55.9">
  <defs>
    <style>
      .cls-1 {
        fill: none;
        stroke: #006818;
        stroke-linecap: round;
        stroke-width: 3px;
      }
    </style>
  </defs>
  <g id="Layer_1-2" data-name="Layer 1">
    <g id="bill-svgrepo-com">
      <path id="Path_112" data-name="Path 112" class="cls-1" d="M52,11.12v-7c0-1.05-.86-1.9-1.91-1.89-.46,0-.9.17-1.25.47-1.8,1.6-4.51,1.6-6.31,0-1.8-1.6-4.51-1.6-6.31,0-1.8,1.6-4.51,1.6-6.31,0-1.8-1.6-4.51-1.6-6.31,0-1.8,1.6-4.51,1.6-6.31,0-1.8-1.6-4.51-1.6-6.31,0-1.8,1.6-4.51,1.6-6.31,0-.79-.69-1.99-.62-2.68.17-.3.35-.47.79-.47,1.25v29.44M52,22.34v29.44c0,1.05-.86,1.9-1.91,1.89-.46,0-.9-.17-1.25-.47-1.8-1.6-4.51-1.6-6.31,0-1.8,1.6-4.51,1.6-6.31,0-1.8-1.6-4.51-1.6-6.31,0-1.8,1.6-4.51,1.6-6.31,0-1.8-1.6-4.51-1.6-6.31,0-1.8,1.6-4.51,1.6-6.31,0-1.8-1.6-4.51-1.6-6.31,0-.79.69-1.99.62-2.68-.17-.3-.34-.47-.79-.47-1.25v-7"/>
      <path id="Path_113" data-name="Path 113" class="cls-1" d="M14.12,37.77h11.22M39.38,37.77h-5.61"/>
      <path id="Path_114" data-name="Path 114" class="cls-1" d="M39.38,27.95h-11.22M14.12,27.95h5.61"/>
      <path id="Path_115" data-name="Path 115" class="cls-1" d="M14.12,18.13h25.25"/>
    </g>
  </g>
</svg>