<?xml version="1.0" encoding="UTF-8"?>
<svg id="Layer_2" data-name="Layer 2" xmlns="http://www.w3.org/2000/svg" viewBox="0 0 50.5 56.44">
  <defs>
    <style>
      .cls-1 {
        fill: #006818;
        stroke: #000;
        stroke-linecap: round;
        stroke-linejoin: round;
        stroke-width: 3px;
      }
    </style>
  </defs>
  <g id="Layer_1-2" data-name="Layer 1">
    <path id="book-svgrepo-com" class="cls-1" d="M1.5,49V11c0-3.32,0-4.99.65-6.26.57-1.12,1.48-2.03,2.6-2.6,1.27-.65,2.93-.65,6.26-.65h28.5c3.33,0,4.99,0,6.26.65,1.12.57,2.03,1.48,2.6,2.6.65,1.27.65,2.93.65,6.26v32.06H7.44c-3.28,0-5.94,2.66-5.94,5.94ZM1.5,49c0,3.28,2.66,5.94,5.94,5.94h41.56M16.34,13.38h17.81M16.34,25.25h17.81M46.03,43.06v11.88"/>
  </g>
</svg>