<?xml version="1.0" encoding="UTF-8"?>
<svg id="Layer_2" data-name="Layer 2" xmlns="http://www.w3.org/2000/svg" viewBox="0 0 51.16 52.9">
  <defs>
    <style>
      .cls-1 {
        fill: #006818;
        stroke-width: 0px;
      }
    </style>
  </defs>
  <g id="Layer_1-2" data-name="Layer 1">
    <path id="books-svgrepo-com" class="cls-1" d="M50.97,44.42L40.2,4.21c-.81-3.01-3.91-4.79-6.92-3.98,0,0-.02,0-.03,0h.04s-5.02,1.34-5.02,1.34c-.37.1-.73.24-1.07.42h.03C26.17.73,24.62,0,22.98,0h-5.2c-1.27,0-2.49.44-3.48,1.24h.01C13.33.44,12.1,0,10.84,0h-5.2C2.53,0,0,2.52,0,5.64v41.62c0,3.11,2.53,5.63,5.64,5.64h5.2c1.27,0,2.49-.44,3.48-1.24h-.01c.98.8,2.21,1.23,3.47,1.24h5.2c3.11,0,5.63-2.53,5.64-5.64v-22.64l6.45,24.06c.81,3.01,3.89,4.79,6.9,3.98.01,0,.03,0,.04-.01h-.04s5.03-1.34,5.03-1.34c3.01-.82,4.79-3.92,3.98-6.93,0,0,0,0,0-.01,0,0,0,.04,0,.04ZM30.83,16.15l7.54-2.02,6.06,22.62-7.54,2.02-6.06-22.62ZM29.4,5.76l5.02-1.34c.11-.03.22-.04.33-.04.59,0,1.1.39,1.27.95h0s1.24,4.62,1.24,4.62l-7.54,2.02-1.1-4.09v-1.47c.16-.31.44-.54.77-.64,0,0,0,0,0,0ZM17.78,4.34h5.2c.71.01,1.29.59,1.3,1.3v4.77h-7.8v-4.77c.01-.71.59-1.29,1.3-1.3ZM12.14,38.16h-7.8V14.74h7.8v23.41ZM16.48,14.74h7.8v23.41h-7.8V14.74ZM5.64,4.34h5.2c.71.01,1.29.59,1.3,1.3v4.77h-7.8v-4.77c.01-.71.59-1.29,1.3-1.3ZM10.84,48.56h-5.2c-.71-.01-1.29-.59-1.3-1.3v-4.77h7.8v4.77c-.01.71-.59,1.29-1.3,1.3h0ZM22.97,48.56h-5.2c-.71-.01-1.29-.59-1.3-1.3v-4.77h7.8v4.77c-.01.71-.59,1.29-1.3,1.3h0ZM45.86,47.14l-5.02,1.34c-.33.09-.69.04-.99-.13h0c-.3-.17-.52-.45-.61-.78h0s-1.23-4.61-1.23-4.61l7.53-2.02,1.24,4.61c.03.11.04.21.04.32,0,.59-.39,1.1-.95,1.27h-.01Z"/>
  </g>
</svg>