<?xml version="1.0" encoding="UTF-8"?>
<svg id="Layer_2" data-name="Layer 2" xmlns="http://www.w3.org/2000/svg" viewBox="0 0 49.99 63.42">
  <defs>
    <style>
      .cls-1 {
        fill: none;
        stroke: #006818;
        stroke-linecap: round;
        stroke-linejoin: round;
        stroke-width: 3px;
      }
    </style>
  </defs>
  <g id="Layer_1-2" data-name="Layer 1">
    <path id="files-alt-2-svgrepo-com" class="cls-1" d="M1.5,14.93v22.82c0,3.76,0,5.64.73,7.08.64,1.26,1.67,2.29,2.93,2.93,1.44.73,3.32.73,7.07.73h12.08c3.76,0,5.64,0,7.07-.73,1.26-.64,2.29-1.67,2.93-2.93.73-1.44.73-3.32.73-7.08V12.24c0-3.76,0-5.64-.73-7.08-.64-1.26-1.67-2.29-2.93-2.93-1.44-.73-3.32-.73-7.08-.73h-9.4M1.5,14.93L14.92,1.5M1.5,14.93h8.06c1.88,0,2.82,0,3.54-.37.63-.32,1.15-.84,1.47-1.47.37-.72.37-1.66.37-3.54V1.5M48.49,14.93v25.51c0,7.52,0,11.28-1.46,14.15-1.29,2.53-3.34,4.58-5.87,5.87-2.87,1.46-6.63,1.46-14.15,1.46h-12.08"/>
  </g>
</svg>