<?xml version="1.0" encoding="UTF-8"?>
<svg id="Layer_2" data-name="Layer 2" xmlns="http://www.w3.org/2000/svg" viewBox="0 0 52 41.13">
  <defs>
    <style>
      .cls-1 {
        fill: #006818;
        stroke: #fff;
        stroke-linecap: round;
        stroke-linejoin: round;
        stroke-width: 3px;
      }
    </style>
  </defs>
  <g id="Layer_1-2" data-name="Layer 1">
    <path id="folder-arrow-down-svgrepo-com" class="cls-1" d="M26,15.13v16.33M26,31.46l-5.44-5.44M26,31.46l5.44-5.44M26.17,4.41l-.34-.34c-.59-.66-1.24-1.24-1.96-1.75-.49-.3-1.02-.52-1.57-.65-.87-.15-1.75-.2-2.62-.15h-9.46c-3.05,0-4.57,0-5.74.59-1.02.52-1.86,1.36-2.38,2.38-.59,1.16-.59,2.69-.59,5.74v20.69c0,3.05,0,4.57.59,5.74.52,1.02,1.35,1.86,2.38,2.38,1.16.59,2.69.59,5.74.59h31.58c3.05,0,4.57,0,5.74-.59,1.02-.52,1.86-1.35,2.38-2.38.59-1.16.59-2.69.59-5.74v-15.24c0-3.05,0-4.57-.59-5.74-.52-1.02-1.35-1.86-2.38-2.38-1.17-.59-2.69-.59-5.74-.59h-9.46c-.88.05-1.76,0-2.62-.15-.56-.13-1.09-.35-1.57-.65-.72-.51-1.38-1.1-1.96-1.75Z"/>
  </g>
</svg>