<?xml version="1.0" encoding="UTF-8"?>
<svg id="Layer_2" data-name="Layer 2" xmlns="http://www.w3.org/2000/svg" viewBox="0 0 49 49">
  <defs>
    <style>
      .cls-1 {
        fill: #006818;
        stroke-width: 0px;
      }
    </style>
  </defs>
  <g id="Layer_1-2" data-name="Layer 1">
    <path id="messages-svgrepo-com" class="cls-1" d="M39.45,32.51c.69,0,1.25-.56,1.25-1.25h0V1.25C40.7.56,40.14,0,39.45,0c0,0,0,0,0,0H1.25C.56,0,0,.55,0,1.24c0,0,0,0,0,0H0v30.01c0,.69.56,1.25,1.25,1.25,0,0,0,0,0,0h9.67v6.94c0,.47.26.9.68,1.11h0c.17.09.36.13.55.13h0c.27,0,.53-.09.75-.25h0l10.58-7.94h15.95ZM22.33,30.27l-8.92,6.69v-5.69c0-.69-.56-1.25-1.25-1.25H2.49V2.49h35.71v27.53h-15.13c-.27,0-.53.09-.75.25h0ZM47.76,13.29h-1.66c-.69,0-1.25.56-1.25,1.25s.56,1.25,1.25,1.25h.42v23.61h-8.25c-.69,0-1.25.56-1.25,1.25h0v4.63l-7.5-5.62c-.21-.16-.48-.25-.75-.25h-7.6c-.69,0-1.25.56-1.25,1.25s.56,1.25,1.25,1.25h7.18l9.16,6.87c.38.29.89.33,1.31.11h0c.42-.21.69-.64.69-1.11h0v-5.87h8.24c.69,0,1.25-.56,1.25-1.25h0V14.54c0-.69-.55-1.25-1.24-1.25,0,0,0,0,0,0h0Z"/>
  </g>
</svg>