<?xml version="1.0" encoding="UTF-8"?>
<svg id="Layer_2" data-name="Layer 2" xmlns="http://www.w3.org/2000/svg" viewBox="0 0 56 48.96">
  <defs>
    <style>
      .cls-1 {
        fill: none;
        stroke: #006818;
        stroke-miterlimit: 10;
        stroke-width: 3px;
      }
    </style>
  </defs>
  <g id="Layer_1-2" data-name="Layer 1">
    <g id="messages-dots-svgrepo-com">
      <path id="Path_122" data-name="Path 122" class="cls-1" d="M40.11,16.51v17.17c0,3.55-2.88,6.43-6.43,6.43h-4.29v6.42l-12.88-6.43H7.93c-3.55,0-6.42-2.88-6.43-6.42v-17.17c0-3.55,2.88-6.43,6.43-6.43h25.75c3.55,0,6.43,2.88,6.43,6.43h0s0,0,0,0Z"/>
      <path id="Path_123" data-name="Path 123" class="cls-1" d="M45.91,31.52h2.25c3.5-.05,6.31-2.88,6.34-6.38V7.93c0-3.55-2.88-6.43-6.43-6.43t0,0h-25.75c-3.55,0-6.43,2.88-6.43,6.43v2.25"/>
      <line id="Line_36" data-name="Line 36" class="cls-1" x1="11.25" y1="25.1" x2="15.54" y2="25.1"/>
      <line id="Line_37" data-name="Line 37" class="cls-1" x1="20.99" y1="25.1" x2="25.28" y2="25.1"/>
      <line id="Line_38" data-name="Line 38" class="cls-1" x1="30.71" y1="25.1" x2="35.01" y2="25.1"/>
    </g>
  </g>
</svg>