<?xml version="1.0" encoding="UTF-8"?>
<svg id="Layer_2" data-name="Layer 2" xmlns="http://www.w3.org/2000/svg" viewBox="0 0 49 35.87">
  <defs>
    <style>
      .cls-1 {
        fill: #006818;
        stroke-width: 0px;
      }
    </style>
  </defs>
  <g id="Layer_1-2" data-name="Layer 1">
    <g id="old-school-svgrepo-com">
      <path id="Path_130" data-name="Path 130" class="cls-1" d="M47.55,32.07h0v-10.04l-1.32-7.92h-12.58l4.09,3.06v4.84l-2.64-1.95v.96h-.78v11.05h-.82v-12.11h.78v-1.45h-1.21l-9.17-6.75-8.86,6.92h-1.07v1.46h.88v11.94h-.86v-10.88h-.88v-.61l-1.88,1.56v-4.95l3.76-3.08H1.97l-1.32,7.92v10.04h-.64v3.8h49v-3.8h-1.45ZM6.45,30.12H2.07v-2.4h4.38v2.4ZM6.45,26.29H2.07v-2.39h4.38v2.39ZM8.27,30.12v-2.4h4.37v2.4h-4.37ZM8.27,26.29v-2.39h4.38v2.39h-4.38ZM24.07,14.73c.96,0,1.73.78,1.73,1.73s-.78,1.73-1.73,1.73-1.73-.78-1.73-1.73h0c0-.96.77-1.73,1.73-1.74h0ZM31.11,32.07h-.96v-10.93h-12.44v10.93h-.87v-11.94h.84v-.56h12.89v.4h.54v12.11ZM39.49,29.87h-4.38v-2.4h4.38v2.4ZM39.49,26.04h-4.38v-2.4h4.38v2.4ZM45.68,29.87h-4.38v-2.4h4.38v2.4ZM45.68,26.04h-4.38v-2.4h4.38v2.4ZM23.93,7.66h-.27V.51h.56v.14c.61.27,2.09.77,2.93-.13,1.07-1.16,2.94,0,2.94,0v3.3c-.85-.71-2.09-.71-2.94,0-.85.66-2.02.73-2.93.16v3.68h-.29l12.98,9.71v2.76l-13.13-9.71-11.7,9.71v-2.76l11.85-9.71Z"/>
    </g>
  </g>
</svg>