<?xml version="1.0" encoding="UTF-8"?>
<svg id="Layer_2" data-name="Layer 2" xmlns="http://www.w3.org/2000/svg" viewBox="0 0 43.07 52.9">
  <defs>
    <style>
      .cls-1 {
        fill: #006818;
        stroke-width: 0px;
      }
    </style>
  </defs>
  <g id="Layer_1-2" data-name="Layer 1">
    <g id="pdf-file-svgrepo-com">
      <path id="Path_173" data-name="Path 173" class="cls-1" d="M10.67,34.04c0-.88-.61-1.4-1.68-1.4-.3,0-.6.02-.89.08v2.82c.24.04.48.06.72.05,1.14,0,1.85-.58,1.85-1.56Z"/>
      <path id="Path_174" data-name="Path 174" class="cls-1" d="M17.33,32.66c-.33,0-.66.02-.98.08v6.24c.25.04.5.05.75.04,1.95.01,3.23-1.06,3.23-3.34.17-1.5-.91-2.86-2.41-3.03-.2-.02-.39-.02-.59,0Z"/>
      <path id="Path_175" data-name="Path 175" class="cls-1" d="M29.69,0H8.45C5.34,0,2.82,2.52,2.82,5.63v20.82h-.55C1.02,26.45,0,27.47,0,28.72H0v13.76c0,1.25,1.01,2.27,2.27,2.27h.55v2.52c0,3.11,2.52,5.63,5.63,5.63h28.99c3.11,0,5.63-2.52,5.63-5.63V13.33L29.69,0ZM5.95,31.2c.96-.15,1.94-.21,2.92-.2,1.03-.08,2.06.19,2.92.76.66.54,1.04,1.35,1.02,2.21.03.84-.28,1.66-.88,2.26-.87.72-1.98,1.07-3.1,1-.25,0-.49-.01-.74-.04v3.41h-2.14v-9.41ZM37.44,49.45H8.45c-1.2,0-2.18-.98-2.18-2.18v-2.52h27.03c1.25,0,2.27-1.01,2.27-2.27h0v-13.76c0-1.25-1.01-2.27-2.27-2.27H6.27V5.63c0-1.2.98-2.18,2.18-2.18l19.96-.02v7.38c0,2.15,1.75,3.9,3.9,3.9l7.23-.02.08,32.58c0,1.2-.97,2.18-2.17,2.19ZM14.18,40.58v-9.38c.97-.14,1.94-.21,2.92-.2,1.38-.11,2.76.25,3.91,1.02,1.1.86,1.7,2.21,1.61,3.6.08,1.46-.5,2.88-1.59,3.87-1.28.9-2.84,1.34-4.4,1.23-.82,0-1.64-.04-2.45-.14ZM29.63,35.03v1.76h-3.43v3.84h-2.17v-9.54h5.83v1.77h-3.67v2.18h3.43Z"/>
    </g>
  </g>
</svg>