<?xml version="1.0" encoding="UTF-8"?>
<svg id="Layer_2" data-name="Layer 2" xmlns="http://www.w3.org/2000/svg" viewBox="0 0 49 61.25">
  <defs>
    <style>
      .cls-1 {
        fill: #e1f5fe;
      }

      .cls-1, .cls-2, .cls-3, .cls-4 {
        stroke-width: 0px;
      }

      .cls-2 {
        fill: #006818;
      }

      .cls-3 {
        fill: #fff;
      }

      .cls-4 {
        fill: #0f972e;
      }
    </style>
  </defs>
  <g id="Layer_1-2" data-name="Layer 1">
    <g id="questions-svgrepo-com">
      <path id="Path_167" data-name="Path 167" class="cls-4" d="M42.88,61.25H0V6.12h30.62l12.25,12.25v42.88Z"/>
      <path id="Path_168" data-name="Path 168" class="cls-2" d="M49,55.12H6.12V0h30.62l12.25,12.25v42.88Z"/>
      <path id="Path_169" data-name="Path 169" class="cls-1" d="M46.7,13.78h-11.48V2.3l11.48,11.48Z"/>
      <path id="Path_170" data-name="Path 170" class="cls-3" d="M25.27,37.21c0-7.2,5.51-6.74,5.51-11.02,0-1.07-.31-3.22-3.06-3.22-1.59-.18-3.02.96-3.2,2.55-.02.17-.02.34-.01.52h-4.14c0-1.07.46-6.43,7.35-6.43s7.2,5.51,7.2,6.58c0,5.36-5.82,6.12-5.82,11.18h-3.83v-.15ZM24.96,42.57c-.1-1.17.76-2.2,1.93-2.3.12-.01.25-.01.37,0,1.23-.04,2.26.92,2.3,2.15,0,.05,0,.1,0,.15.04,1.15-.86,2.12-2.01,2.15-.1,0-.19,0-.29-.01-1.15.12-2.17-.71-2.29-1.86,0-.09-.01-.19-.01-.29h0Z"/>
    </g>
  </g>
</svg>