<?xml version="1.0" encoding="UTF-8"?>
<svg id="Layer_2" data-name="Layer 2" xmlns="http://www.w3.org/2000/svg" viewBox="0 0 53 62.64">
  <defs>
    <style>
      .cls-1 {
        fill: #006818;
        fill-rule: evenodd;
      }

      .cls-1, .cls-2 {
        stroke-width: 0px;
      }

      .cls-2 {
        fill: #fff;
      }
    </style>
  </defs>
  <g id="Layer_1-2" data-name="Layer 1">
    <g id="report-svgrepo-com">
      <path id="Path_171" data-name="Path 171" class="cls-1" d="M18.07,0h16.87c3.06,0,5.79,1.93,6.81,4.82h6.44c2.57,0,4.68,2.01,4.81,4.58v.24s0,48.18,0,48.18c0,2.57-2.01,4.69-4.58,4.81h-.24s-43.36,0-43.36,0c-2.57,0-4.68-2.01-4.81-4.58v-.24s0-48.19,0-48.19c0-2.57,2.01-4.68,4.58-4.81h.24s6.44,0,6.44,0C12.28,1.93,15.01,0,18.07,0ZM15.67,7.39c0-.08,0-.17,0-.25v-.07c.09-1.26,1.14-2.24,2.4-2.25h16.87c1.33,0,2.41,1.08,2.41,2.41,0,1.33-1.08,2.41-2.41,2.41h-16.87c-1.26-.01-2.31-.99-2.4-2.25Z"/>
      <path id="Path_172" data-name="Path 172" class="cls-2" d="M36.34,26.5c.94-.94,2.47-.94,3.41,0h0c.94.94.94,2.47,0,3.41,0,0,0,0,0,0l-13.96,13.96c-.94.94-2.47.94-3.41,0l-7.93-7.93c-.94-.94-.94-2.47,0-3.41,0,0,0,0,0,0h0c.94-.94,2.47-.94,3.41,0l6.23,6.23,12.25-12.25Z"/>
    </g>
  </g>
</svg>