<?xml version="1.0" encoding="UTF-8"?>
<svg id="Layer_2" data-name="Layer 2" xmlns="http://www.w3.org/2000/svg" viewBox="0 0 53 53">
  <defs>
    <style>
      .cls-1 {
        fill: #006818;
        stroke-width: 0px;
      }
    </style>
  </defs>
  <g id="Layer_1-2" data-name="Layer 1">
    <g id="speaker-svgrepo-com">
      <path id="Path_133" data-name="Path 133" class="cls-1" d="M50.52,24.02h-9.94c-1.37,0-2.48,1.11-2.48,2.48s1.11,2.48,2.48,2.48h9.94c1.37,0,2.48-1.11,2.48-2.48s-1.11-2.48-2.48-2.48Z"/>
      <path id="Path_134" data-name="Path 134" class="cls-1" d="M49.12,36.91l-9.34-3.4c-1.29-.48-2.72.18-3.19,1.47-.48,1.29.18,2.72,1.47,3.19,0,0,.02,0,.03,0l9.34,3.4c1.29.47,2.72-.2,3.18-1.48.47-1.29-.2-2.72-1.48-3.18h0Z"/>
      <path id="Path_135" data-name="Path 135" class="cls-1" d="M39.78,19.49l9.34-3.4c1.29-.48,1.94-1.91,1.46-3.2-.47-1.27-1.88-1.92-3.16-1.47l-9.34,3.4c-1.29.46-1.96,1.88-1.5,3.18.46,1.29,1.88,1.96,3.18,1.5,0,0,.02,0,.03,0h0Z"/>
      <path id="Path_136" data-name="Path 136" class="cls-1" d="M6.63,39.75h3.31V13.25h-3.31v26.5Z"/>
      <path id="Path_137" data-name="Path 137" class="cls-1" d="M0,16.56v19.87c0,1.83,1.48,3.31,3.31,3.31h1.66V13.25h-1.66C1.48,13.25,0,14.73,0,16.56c0,0,0,0,0,0Z"/>
      <path id="Path_138" data-name="Path 138" class="cls-1" d="M31.08.25c-1.24-.51-2.66-.23-3.61.72l-11.85,11.85c-.3.3-.71.45-1.12.43h-2.9v26.5h2.77c.52-.04,1.03.17,1.38.56l11.72,11.72c1.29,1.29,3.39,1.29,4.69,0,.62-.62.97-1.46.97-2.34V3.31c0-1.34-.81-2.55-2.04-3.06Z"/>
    </g>
  </g>
</svg>