<?xml version="1.0" encoding="UTF-8"?>
<svg id="Layer_2" data-name="Layer 2" xmlns="http://www.w3.org/2000/svg" viewBox="0 0 49 49">
  <defs>
    <style>
      .cls-1 {
        fill: #006818;
        fill-rule: evenodd;
        stroke-width: 0px;
      }
    </style>
  </defs>
  <g id="Layer_1-2" data-name="Layer 1">
    <path id="vote-info-svgrepo-com" class="cls-1" d="M6.44,45.33H1.84c-1.01,0-1.84.82-1.84,1.84s.82,1.84,1.84,1.84h45.32c1.01,0,1.84-.82,1.84-1.84s-.82-1.84-1.84-1.84h-4.54l3.18-9.54c.78-2.33-.48-4.85-2.81-5.63l-24.12-8.05c-2.33-.78-4.85.48-5.63,2.82l-6.81,20.41ZM38.76,45.33l3.57-10.71c.14-.41-.08-.85-.49-.98l-24.12-8.04c-.41-.14-.85.08-.98.49,0,0,0,0,0,0l-6.42,19.24h28.45,0ZM7.7,0C5.51,0,3.34.37,1.26,1.07.51,1.32,0,2.02,0,2.82,0,8.07.18,13.53,6.96,16.52c.47.21,1.01.21,1.48,0,6.78-2.99,6.96-8.45,6.96-13.7,0-.79-.51-1.5-1.26-1.74C12.07.37,9.89,0,7.7,0ZM7.7,3.67c1.36,0,2.71.18,4.03.52-.01,3.27-.3,6.59-4.03,8.6C3.97,10.78,3.69,7.47,3.68,4.19c1.32-.34,2.67-.51,4.03-.52Z"/>
  </g>
</svg>