<?xml version="1.0" encoding="UTF-8"?>
<svg id="Layer_2" data-name="Layer 2" xmlns="http://www.w3.org/2000/svg" viewBox="0 0 55.01 49.7">
  <defs>
    <style>
      .cls-1 {
        fill: #27323a;
      }

      .cls-1, .cls-2, .cls-3 {
        stroke-width: 0px;
      }

      .cls-2 {
        fill: #006818;
      }

      .cls-3 {
        fill: #fff;
      }
    </style>
  </defs>
  <g id="Layer_1-2" data-name="Layer 1">
    <g id="write-document-svgrepo-com">
      <path id="Path_149" data-name="Path 149" class="cls-1" d="M53.61,4.51h-5.24V1.49C48.37.67,47.71,0,46.89,0s-1.49.67-1.49,1.49v3.02h-6.2V1.49C39.2.67,38.54,0,37.71,0s-1.49.67-1.49,1.49v3.02h-6.2V1.49c0-.82-.67-1.49-1.49-1.49s-1.49.67-1.49,1.49v3.02h-6.2V1.49c0-.82-.67-1.49-1.49-1.49s-1.49.67-1.49,1.49v3.02h-5.24c-.77,0-1.4.63-1.4,1.4v2.81l-2.5-2.5c-1.36-1.35-3.55-1.34-4.89.01,0,0,0,0,0,0l-2.82,2.82c-1.36,1.35-1.37,3.55-.02,4.91l10.25,10.25v24.09c0,.77.63,1.4,1.4,1.4h40.96c.77,0,1.4-.63,1.4-1.4V5.9c0-.77-.63-1.4-1.4-1.4h0Z"/>
      <path id="Path_150" data-name="Path 150" class="cls-2" d="M5.98,14.7l3.52-3.52,18.18,18.17-.14,3.38-3.37.15h0L5.98,14.7Z"/>
      <path id="Path_151" data-name="Path 151" class="cls-3" d="M32.02,38.54c-2.85-1.09-6.57-2.78-6.82-2.85l-.09-.09c.06-.58.14-1.23.17-1.56l.03-.03,3.42-.09.08-3.41h.01c.32-.05.98-.12,1.57-.19.03.03.07.07.09.09.07.23,1.78,3.94,2.88,6.79-.5-.24-1.1-.03-1.34.46-.13.28-.13.6,0,.87h0Z"/>
      <path id="Path_152" data-name="Path 152" class="cls-3" d="M51.79,46.58h-7.71c2.7-.82,5.29-1.96,7.71-3.4v3.4Z"/>
      <path id="Path_153" data-name="Path 153" class="cls-3" d="M36.6,46.16c3.39-1.87,6.54-4.15,9.38-6.79,1.25,1.03,2.66,1.85,4.18,2.42-4.21,2.28-8.81,3.76-13.56,4.37h0Z"/>
      <path id="Path_154" data-name="Path 154" class="cls-2" d="M51.79,40.31c-1.55-.52-4.52-1.92-4.95-2.78-.15-.3-.44-.5-.77-.53-.33-.04-.66.09-.87.34-3.23,3.75-12.46,9.16-14.53,9.25H14.35v-19.29l9.56,9.56h.02l.2.2s.09.07.14.08l11.34,4.27c.06.01.13,0,.19,0,.11,0,.22-.05.31-.13.07-.07.12-.16.14-.26.03-.08.03-.17,0-.25l-4.32-11.29c-.02-.05-.05-.1-.09-.14l-.19-.19v-.03L14.35,11.8v-4.3h3.55v1.63c-.59.45-.95,1.14-.95,1.89,0,1.35,1.09,2.44,2.44,2.44s2.44-1.09,2.44-2.44c0-.74-.36-1.44-.95-1.89v-1.63h6.2v1.63c-.59.45-.95,1.14-.95,1.89,0,1.35,1.09,2.44,2.44,2.44s2.44-1.09,2.44-2.44h0c0-.74-.36-1.43-.95-1.88v-1.64h6.2v1.63c-.59.45-.94,1.14-.95,1.89,0,1.35,1.09,2.44,2.44,2.44s2.44-1.09,2.44-2.44c0-.74-.36-1.43-.95-1.88v-1.64h6.2v1.63c-.59.45-.94,1.14-.95,1.89,0,1.35,1.09,2.44,2.44,2.44s2.44-1.09,2.44-2.44h0c0-.74-.36-1.43-.95-1.88v-1.64h3.42v32.82h0Z"/>
      <path id="Path_155" data-name="Path 155" class="cls-3" d="M8.01,9.74l-3.5,3.5-1.68-1.68,3.5-3.5,1.68,1.68Z"/>
    </g>
  </g>
</svg>